<svg id="Capa_1" enable-background="new 0 0 448.941 448.941" height="512" viewBox="0 0 448.941 448.941" width="512" xmlns="http://www.w3.org/2000/svg"><path d="m407.85 41.092c54.788 54.788 54.788 143.618 0 198.406s-143.618 54.788-198.406 0-54.788-143.618 0-198.406 143.618-54.789 198.406 0"/><path d="m167.648 253.235c38.352 38.352 38.352 100.532 0 138.884s-100.532 38.352-138.884 0-38.352-100.532 0-138.884 100.532-38.352 138.884 0"/><path d="m348.329 353.142c21.915 21.915 21.915 57.447 0 79.362s-57.447 21.915-79.362 0-21.915-57.447 0-79.362 57.446-21.915 79.362 0"/></svg>