<?xml version="1.0" encoding="iso-8859-1"?>
<!-- Generator: Adobe Illustrator 16.0.0, SVG Export Plug-In . SVG Version: 6.00 Build 0)  -->
<!DOCTYPE svg PUBLIC "-//W3C//DTD SVG 1.1//EN" "http://www.w3.org/Graphics/SVG/1.1/DTD/svg11.dtd">
<svg version="1.1" id="Capa_1" xmlns="http://www.w3.org/2000/svg" xmlns:xlink="http://www.w3.org/1999/xlink" x="0px" y="0px"
	 width="483.229px" height="483.229px" viewBox="0 0 483.229 483.229" style="enable-background:new 0 0 483.229 483.229;"
	 xml:space="preserve">
<g>
	<path d="M184.824,159.112L84.293,58.582C126.683,22.104,181.792,0,242.104,0c126.567,0,230.391,97.138,241.124,220.921H340.714
		c-9.734-45.534-50.164-79.695-98.609-79.695C220.812,141.226,201.099,147.852,184.824,159.112z M141.226,242.104
		c0-19.077,5.399-36.859,14.593-52.076L54.666,88.889C20.507,130.628,0,183.964,0,242.104c0,126.567,97.138,230.378,220.921,241.124
		V340.714C175.387,330.979,141.226,290.543,141.226,242.104z M263.289,340.714v142.515
		c116.797-10.131,209.809-103.148,219.939-219.939H340.714C332.439,301.992,301.993,332.439,263.289,340.714z"/>
</g>
<g>
</g>
<g>
</g>
<g>
</g>
<g>
</g>
<g>
</g>
<g>
</g>
<g>
</g>
<g>
</g>
<g>
</g>
<g>
</g>
<g>
</g>
<g>
</g>
<g>
</g>
<g>
</g>
<g>
</g>
</svg>
