<svg id="svg" version="1.1" xmlns="http://www.w3.org/2000/svg" xmlns:xlink="http://www.w3.org/1999/xlink" width="400" height="400" viewBox="0, 0, 400,400"><g id="svgg"><path id="path0" d="M319.400 64.248 C 318.960 64.349,318.197 64.517,317.705 64.622 C 316.383 64.904,315.429 66.532,315.981 67.564 C 316.661 68.835,317.748 69.225,322.261 69.817 C 331.070 70.973,334.077 75.838,329.884 82.152 C 327.991 85.003,254.045 158.815,251.084 160.808 C 246.655 163.790,247.131 163.737,222.800 163.981 L 201.000 164.200 199.132 165.298 C 197.831 166.063,196.729 167.216,195.502 169.098 C 192.919 173.058,176.772 199.790,171.278 209.200 C 169.416 212.390,165.791 218.420,163.222 222.600 C 160.653 226.780,158.040 231.089,157.415 232.175 C 153.322 239.288,147.580 241.128,141.800 237.180 C 140.920 236.579,135.807 231.793,130.438 226.544 C 119.398 215.750,118.967 215.389,116.165 214.573 C 112.806 213.596,52.212 213.907,50.682 214.909 C 49.079 215.960,49.182 217.751,50.900 218.690 C 52.103 219.347,54.445 219.415,82.200 219.602 C 119.950 219.856,113.406 217.572,133.600 237.542 C 140.750 244.613,147.167 250.669,147.860 250.999 C 151.654 252.807,152.847 251.398,164.793 231.000 C 167.370 226.600,171.186 220.210,173.273 216.800 C 176.451 211.607,186.696 194.474,194.487 181.320 C 198.481 174.577,200.899 172.070,204.939 170.485 C 206.371 169.924,209.498 169.803,227.600 169.612 L 248.600 169.391 250.800 168.431 C 252.746 167.581,257.642 162.843,293.200 127.391 C 337.736 82.987,335.565 84.928,340.328 85.272 C 344.652 85.585,346.476 88.013,347.202 94.418 C 347.810 99.782,349.304 101.916,351.232 100.171 C 352.712 98.832,352.857 97.108,352.726 82.400 C 352.549 62.471,354.310 64.227,334.400 64.133 C 326.590 64.096,319.840 64.148,319.400 64.248 M216.899 195.144 C 214.412 196.013,213.414 196.841,212.257 199.000 L 211.400 200.600 211.400 266.000 C 211.400 334.094,211.388 333.612,213.066 335.606 C 215.692 338.727,214.494 338.600,241.400 338.600 C 270.113 338.600,269.727 338.669,271.545 333.240 C 272.201 331.281,272.195 201.894,271.539 199.960 C 270.785 197.737,269.586 196.351,267.637 195.450 C 264.944 194.204,220.360 193.935,216.899 195.144 " stroke="none" fill="#741387" fill-rule="evenodd"></path><path id="path1" d="M218.400 191.990 C 213.856 192.627,210.533 195.035,209.185 198.669 C 208.459 200.628,208.089 327.142,208.796 331.733 C 209.721 337.732,212.501 340.401,218.696 341.233 C 223.129 341.829,265.701 341.514,267.645 340.871 C 270.245 340.010,272.388 338.119,273.535 335.672 L 274.600 333.400 274.600 266.600 L 274.600 199.800 273.548 197.557 C 272.353 195.007,270.557 193.444,267.718 192.483 C 265.608 191.769,223.015 191.343,218.400 191.990 M267.637 195.450 C 269.586 196.351,270.785 197.737,271.539 199.960 C 272.195 201.894,272.201 331.281,271.545 333.240 C 269.727 338.669,270.113 338.600,241.400 338.600 C 214.494 338.600,215.692 338.727,213.066 335.606 C 211.388 333.612,211.400 334.094,211.400 266.000 L 211.400 200.600 212.257 199.000 C 214.747 194.355,214.497 194.392,242.400 194.505 C 265.310 194.598,265.838 194.618,267.637 195.450 M49.286 243.956 C 46.836 244.803,45.468 245.958,44.261 248.200 L 43.400 249.800 43.400 291.600 L 43.400 333.400 44.643 335.600 C 45.664 337.407,46.302 338.014,48.215 339.000 L 50.543 340.200 74.972 340.200 L 99.400 340.200 101.800 339.000 C 104.304 337.748,105.595 336.271,106.479 333.647 C 107.115 331.758,107.440 257.877,106.834 252.916 C 106.181 247.570,104.345 245.009,100.308 243.810 C 96.924 242.805,52.249 242.933,49.286 243.956 " stroke="none" fill="#e06716" fill-rule="evenodd"></path><path id="path2" d="M300.499 163.540 C 299.051 163.958,297.250 165.928,296.805 167.583 C 295.959 170.724,296.468 332.358,297.328 333.935 C 299.012 337.021,298.820 337.000,325.000 337.000 C 351.940 337.000,351.167 337.102,352.916 333.316 L 353.800 331.400 353.800 250.000 L 353.800 168.600 352.949 166.759 C 351.245 163.076,352.179 163.194,324.974 163.240 C 312.008 163.262,300.994 163.397,300.499 163.540 " stroke="none" fill="#8ac3f4" fill-rule="evenodd"></path><path id="path3" d="M0.000 200.000 L 0.000 400.000 200.000 400.000 L 400.000 400.000 400.000 200.000 L 400.000 0.000 200.000 0.000 L 0.000 0.000 0.000 200.000 M353.862 55.238 C 357.863 56.925,359.875 58.937,361.562 62.938 L 362.600 65.400 362.724 82.036 C 362.877 102.669,362.485 104.984,358.204 108.743 C 351.585 114.554,342.861 112.462,338.624 104.047 C 337.006 100.835,336.194 100.196,334.526 100.823 C 333.899 101.059,316.827 117.787,296.000 138.573 C 259.735 174.766,258.509 175.943,255.600 177.341 C 251.366 179.376,248.678 179.600,228.410 179.602 C 208.872 179.605,208.605 179.636,206.200 182.169 C 205.302 183.115,197.161 196.294,187.633 212.227 C 163.266 252.976,162.003 255.032,159.883 257.414 C 155.675 262.139,149.853 263.416,144.509 260.785 C 141.774 259.438,138.212 256.150,121.102 239.172 C 116.678 234.782,113.213 231.691,111.902 230.965 L 109.800 229.800 80.000 229.565 C 58.930 229.399,49.693 229.192,48.469 228.856 C 34.045 224.904,34.943 207.113,49.705 204.384 C 54.343 203.526,117.442 204.073,119.996 204.993 C 123.512 206.259,125.775 208.081,135.153 217.200 C 145.986 227.733,146.638 228.138,149.115 225.871 C 149.981 225.077,155.183 216.757,162.289 204.800 C 165.627 199.184,174.310 184.709,182.513 171.087 C 193.152 153.422,191.162 154.314,220.610 154.017 L 242.219 153.800 244.810 152.516 C 247.147 151.357,250.744 147.886,281.700 116.911 C 321.204 77.382,318.191 81.110,312.818 78.409 C 300.460 72.196,302.250 57.148,315.671 54.416 C 316.622 54.223,325.050 54.095,334.400 54.132 L 351.400 54.200 353.862 55.238 M351.600 158.161 C 354.605 159.151,357.637 162.178,358.654 165.200 C 359.533 167.813,360.063 322.608,359.220 330.501 C 357.949 342.403,356.391 342.928,322.988 342.705 C 295.778 342.524,295.012 342.370,292.120 336.480 L 291.000 334.200 291.000 250.400 C 291.000 169.162,291.023 166.540,291.757 164.639 C 293.254 160.755,296.507 158.267,300.978 157.585 C 305.592 156.881,349.223 157.377,351.600 158.161 M266.800 187.614 C 272.714 188.542,276.673 191.764,278.490 197.126 L 279.396 199.800 279.515 263.400 C 279.639 329.654,279.565 333.125,277.950 337.442 C 276.785 340.555,273.816 343.538,270.588 344.838 L 268.200 345.800 241.800 345.800 L 215.400 345.800 212.938 344.762 C 208.869 343.046,206.323 340.329,204.879 336.161 C 204.051 333.770,203.598 205.062,204.399 199.852 C 205.419 193.222,209.184 189.225,215.755 187.795 C 218.824 187.128,262.709 186.972,266.800 187.614 M102.282 239.327 C 106.774 240.822,109.906 244.413,110.989 249.307 C 111.557 251.875,111.616 256.806,111.514 293.200 L 111.400 334.200 110.443 336.576 C 109.184 339.700,106.500 342.384,103.376 343.643 L 101.000 344.600 75.200 344.600 C 45.905 344.600,46.963 344.707,43.232 341.353 C 40.717 339.092,39.313 336.246,38.814 332.399 C 38.265 328.167,38.274 254.960,38.825 251.005 C 39.868 243.504,43.679 239.765,51.400 238.668 C 55.506 238.084,100.292 238.665,102.282 239.327 M185.600 273.321 C 193.757 276.511,194.386 279.022,194.386 308.400 C 194.386 337.758,193.758 340.307,185.787 343.294 C 183.073 344.311,141.145 344.933,134.777 344.050 C 129.093 343.263,125.382 340.586,123.460 335.888 C 122.468 333.464,121.895 290.793,122.766 284.301 C 123.603 278.068,127.013 274.202,132.789 272.935 C 136.696 272.078,183.291 272.419,185.600 273.321 " stroke="none" fill="#ffffff" fill-rule="evenodd"></path><path id="path4" d="M316.137 56.817 C 305.518 58.918,303.772 71.559,313.506 75.864 C 314.670 76.379,315.831 76.800,316.085 76.800 C 318.805 76.800,320.733 79.223,319.802 81.471 C 319.021 83.358,249.677 152.653,246.999 154.222 C 243.739 156.132,243.649 156.140,221.000 156.382 C 199.822 156.608,199.356 156.630,197.168 157.509 C 192.123 159.537,192.664 158.757,169.400 197.543 C 151.041 228.150,149.786 230.000,147.381 230.000 C 145.002 230.000,143.810 229.053,133.810 219.218 C 123.433 209.012,121.634 207.696,116.845 206.802 C 113.351 206.150,52.368 206.279,49.541 206.944 C 40.615 209.045,37.686 218.183,44.123 223.848 C 47.789 227.075,46.395 226.946,80.200 227.187 L 110.200 227.400 112.578 228.568 C 114.543 229.533,117.355 232.104,128.783 243.389 C 146.070 260.460,147.970 261.600,154.200 258.643 C 158.375 256.662,157.221 258.382,180.650 219.202 C 203.813 180.466,203.975 180.212,206.568 178.613 L 208.535 177.400 229.168 177.173 C 252.097 176.920,251.915 176.941,256.381 174.119 C 257.812 173.215,272.026 159.327,296.400 135.021 C 339.257 92.282,337.499 93.751,339.401 99.071 C 341.684 105.457,343.694 107.928,347.515 109.046 C 352.508 110.508,357.615 107.606,359.487 102.244 C 360.600 99.053,360.566 67.651,359.445 64.432 C 358.082 60.516,354.839 57.773,350.480 56.849 C 348.005 56.325,318.765 56.297,316.137 56.817 M351.331 59.603 C 353.470 60.372,356.170 62.869,357.049 64.893 C 358.118 67.353,358.416 96.155,357.414 100.069 C 354.914 109.827,344.913 108.972,342.353 98.780 C 341.099 93.788,340.185 92.400,338.153 92.400 C 335.635 92.400,333.838 94.083,294.800 133.005 C 251.394 176.283,254.351 173.673,247.884 174.416 C 246.078 174.624,236.758 174.795,227.173 174.797 C 202.258 174.801,205.684 172.653,190.802 197.600 C 155.394 256.953,156.830 254.716,153.009 256.452 C 148.173 258.648,146.738 257.698,129.760 241.068 C 118.274 229.816,115.290 227.104,113.360 226.157 L 111.000 225.000 81.000 224.770 C 59.760 224.608,50.591 224.404,49.600 224.074 C 42.020 221.545,41.027 213.504,47.880 210.139 L 50.200 209.000 82.000 208.877 C 124.089 208.714,118.091 207.013,135.400 224.020 C 149.476 237.850,147.569 238.979,167.875 204.800 C 183.073 179.220,191.629 165.280,193.287 163.396 C 197.209 158.940,198.072 158.800,221.565 158.800 C 241.784 158.800,243.572 158.670,247.200 156.939 C 250.314 155.453,321.874 84.135,323.431 80.965 C 325.144 77.477,323.801 75.895,318.081 74.666 C 307.555 72.404,306.471 61.855,316.509 59.362 C 319.535 58.611,349.139 58.816,351.331 59.603 M274.995 266.600 C 274.995 300.700,275.042 314.709,275.100 297.731 C 275.158 280.754,275.158 252.854,275.100 235.731 C 275.042 218.609,274.995 232.500,274.995 266.600 M210.400 337.325 C 210.400 337.394,210.985 337.979,211.700 338.625 L 213.000 339.800 211.825 338.500 C 210.730 337.288,210.400 337.016,210.400 337.325 " stroke="none" fill="#b8a6ba" fill-rule="evenodd"></path><path id="path5" d="M133.200 274.142 C 127.615 275.400,124.781 278.631,123.973 284.660 C 123.706 286.655,123.603 296.043,123.692 310.400 C 123.853 336.577,123.755 335.807,127.381 339.433 C 131.043 343.095,130.216 343.000,158.400 343.000 C 186.545 343.000,185.770 343.088,189.371 339.474 C 193.092 335.738,193.000 336.527,193.000 308.400 C 193.000 285.668,192.954 284.059,192.237 281.873 C 191.191 278.684,188.662 275.926,185.683 274.724 L 183.400 273.802 159.400 273.724 C 141.526 273.667,134.838 273.773,133.200 274.142 " stroke="none" fill="#5ebd24" fill-rule="evenodd"></path><path id="path6" d="M316.509 59.362 C 306.471 61.855,307.555 72.404,318.081 74.666 C 323.801 75.895,325.144 77.477,323.431 80.965 C 321.874 84.135,250.314 155.453,247.200 156.939 C 243.572 158.670,241.784 158.800,221.565 158.800 C 198.072 158.800,197.209 158.940,193.287 163.396 C 191.629 165.280,183.073 179.220,167.875 204.800 C 147.569 238.979,149.476 237.850,135.400 224.020 C 118.091 207.013,124.089 208.714,82.000 208.877 L 50.200 209.000 47.880 210.139 C 41.027 213.504,42.020 221.545,49.600 224.074 C 50.591 224.404,59.760 224.608,81.000 224.770 L 111.000 225.000 113.360 226.157 C 115.290 227.104,118.274 229.816,129.760 241.068 C 146.738 257.698,148.173 258.648,153.009 256.452 C 156.830 254.716,155.394 256.953,190.802 197.600 C 205.684 172.653,202.258 174.801,227.173 174.797 C 236.758 174.795,246.078 174.624,247.884 174.416 C 254.351 173.673,251.394 176.283,294.800 133.005 C 333.838 94.083,335.635 92.400,338.153 92.400 C 340.185 92.400,341.099 93.788,342.353 98.780 C 344.913 108.972,354.914 109.827,357.414 100.069 C 358.416 96.155,358.118 67.353,357.049 64.893 C 356.170 62.869,353.470 60.372,351.331 59.603 C 349.139 58.816,319.535 58.611,316.509 59.362 M349.893 64.907 C 352.541 66.354,352.586 66.630,352.726 82.400 C 352.857 97.108,352.712 98.832,351.232 100.171 C 349.304 101.916,347.810 99.782,347.202 94.418 C 346.476 88.013,344.652 85.585,340.328 85.272 C 335.565 84.928,337.736 82.987,293.200 127.391 C 257.642 162.843,252.746 167.581,250.800 168.431 L 248.600 169.391 227.600 169.612 C 209.498 169.803,206.371 169.924,204.939 170.485 C 200.899 172.070,198.481 174.577,194.487 181.320 C 186.696 194.474,176.451 211.607,173.273 216.800 C 171.186 220.210,167.370 226.600,164.793 231.000 C 152.847 251.398,151.654 252.807,147.860 250.999 C 147.167 250.669,140.750 244.613,133.600 237.542 C 113.406 217.572,119.950 219.856,82.200 219.602 C 54.445 219.415,52.103 219.347,50.900 218.690 C 49.182 217.751,49.079 215.960,50.682 214.909 C 52.212 213.907,112.806 213.596,116.165 214.573 C 118.967 215.389,119.398 215.750,130.438 226.544 C 135.807 231.793,140.920 236.579,141.800 237.180 C 147.580 241.128,153.322 239.288,157.415 232.175 C 158.040 231.089,160.653 226.780,163.222 222.600 C 165.791 218.420,169.416 212.390,171.278 209.200 C 176.772 199.790,192.919 173.058,195.502 169.098 C 196.729 167.216,197.831 166.063,199.132 165.298 L 201.000 164.200 222.800 163.981 C 247.131 163.737,246.655 163.790,251.084 160.808 C 254.045 158.815,327.991 85.003,329.884 82.152 C 334.077 75.838,331.070 70.973,322.261 69.817 C 317.748 69.225,316.661 68.835,315.981 67.564 C 315.429 66.532,316.383 64.904,317.705 64.622 C 318.197 64.517,318.960 64.349,319.400 64.248 C 322.022 63.650,348.645 64.225,349.893 64.907 " stroke="none" fill="#947494" fill-rule="evenodd"></path><path id="path7" d="M315.671 54.416 C 302.250 57.148,300.460 72.196,312.818 78.409 C 318.191 81.110,321.204 77.382,281.700 116.911 C 250.744 147.886,247.147 151.357,244.810 152.516 L 242.219 153.800 220.610 154.017 C 191.162 154.314,193.152 153.422,182.513 171.087 C 174.310 184.709,165.627 199.184,162.289 204.800 C 155.183 216.757,149.981 225.077,149.115 225.871 C 146.638 228.138,145.986 227.733,135.153 217.200 C 125.775 208.081,123.512 206.259,119.996 204.993 C 117.442 204.073,54.343 203.526,49.705 204.384 C 34.943 207.113,34.045 224.904,48.469 228.856 C 49.693 229.192,58.930 229.399,80.000 229.565 L 109.800 229.800 111.902 230.965 C 113.213 231.691,116.678 234.782,121.102 239.172 C 138.212 256.150,141.774 259.438,144.509 260.785 C 149.853 263.416,155.675 262.139,159.883 257.414 C 162.003 255.032,163.266 252.976,187.633 212.227 C 197.161 196.294,205.302 183.115,206.200 182.169 C 208.605 179.636,208.872 179.605,228.410 179.602 C 248.678 179.600,251.366 179.376,255.600 177.341 C 258.509 175.943,259.735 174.766,296.000 138.573 C 316.827 117.787,333.899 101.059,334.526 100.823 C 336.194 100.196,337.006 100.835,338.624 104.047 C 342.861 112.462,351.585 114.554,358.204 108.743 C 362.485 104.984,362.877 102.669,362.724 82.036 L 362.600 65.400 361.562 62.938 C 359.875 58.937,357.863 56.925,353.862 55.238 L 351.400 54.200 334.400 54.132 C 325.050 54.095,316.622 54.223,315.671 54.416 M350.480 56.849 C 354.839 57.773,358.082 60.516,359.445 64.432 C 360.566 67.651,360.600 99.053,359.487 102.244 C 357.615 107.606,352.508 110.508,347.515 109.046 C 343.694 107.928,341.684 105.457,339.401 99.071 C 337.499 93.751,339.257 92.282,296.400 135.021 C 272.026 159.327,257.812 173.215,256.381 174.119 C 251.915 176.941,252.097 176.920,229.168 177.173 L 208.535 177.400 206.568 178.613 C 203.975 180.212,203.813 180.466,180.650 219.202 C 157.221 258.382,158.375 256.662,154.200 258.643 C 147.970 261.600,146.070 260.460,128.783 243.389 C 117.355 232.104,114.543 229.533,112.578 228.568 L 110.200 227.400 80.200 227.187 C 46.395 226.946,47.789 227.075,44.123 223.848 C 37.686 218.183,40.615 209.045,49.541 206.944 C 52.368 206.279,113.351 206.150,116.845 206.802 C 121.634 207.696,123.433 209.012,133.810 219.218 C 143.810 229.053,145.002 230.000,147.381 230.000 C 149.786 230.000,151.041 228.150,169.400 197.543 C 192.664 158.757,192.123 159.537,197.168 157.509 C 199.356 156.630,199.822 156.608,221.000 156.382 C 243.649 156.140,243.739 156.132,246.999 154.222 C 249.677 152.653,319.021 83.358,319.802 81.471 C 320.733 79.223,318.805 76.800,316.085 76.800 C 315.831 76.800,314.670 76.379,313.506 75.864 C 303.772 71.559,305.518 58.918,316.137 56.817 C 318.765 56.297,348.005 56.325,350.480 56.849 M215.755 187.795 C 209.184 189.225,205.419 193.222,204.399 199.852 C 203.598 205.062,204.051 333.770,204.879 336.161 C 206.323 340.329,208.869 343.046,212.938 344.762 L 215.400 345.800 241.800 345.800 L 268.200 345.800 270.588 344.838 C 273.816 343.538,276.785 340.555,277.950 337.442 C 279.565 333.125,279.639 329.654,279.515 263.400 L 279.396 199.800 278.490 197.126 C 276.673 191.764,272.714 188.542,266.800 187.614 C 262.709 186.972,218.824 187.128,215.755 187.795 M267.016 192.218 C 272.213 193.567,274.237 196.336,274.849 202.934 C 275.438 209.296,275.103 332.217,274.491 334.014 C 273.469 337.018,271.793 339.046,269.340 340.251 L 267.000 341.400 242.878 341.518 C 212.878 341.664,212.751 341.642,209.800 335.783 L 208.600 333.400 208.493 267.800 C 208.420 222.677,208.519 201.560,208.811 200.150 C 209.681 195.951,212.771 192.834,216.859 192.030 C 220.279 191.358,264.335 191.523,267.016 192.218 M51.400 238.668 C 43.679 239.765,39.868 243.504,38.825 251.005 C 38.274 254.960,38.265 328.167,38.814 332.399 C 39.313 336.246,40.717 339.092,43.232 341.353 C 46.963 344.707,45.905 344.600,75.200 344.600 L 101.000 344.600 103.376 343.643 C 106.500 342.384,109.184 339.700,110.443 336.576 L 111.400 334.200 111.514 293.200 C 111.616 256.806,111.557 251.875,110.989 249.307 C 109.906 244.413,106.774 240.822,102.282 239.327 C 100.292 238.665,55.506 238.084,51.400 238.668 M100.308 243.810 C 104.345 245.009,106.181 247.570,106.834 252.916 C 107.440 257.877,107.115 331.758,106.479 333.647 C 105.595 336.271,104.304 337.748,101.800 339.000 L 99.400 340.200 74.972 340.200 L 50.543 340.200 48.215 339.000 C 46.302 338.014,45.664 337.407,44.643 335.600 L 43.400 333.400 43.400 291.600 L 43.400 249.800 44.261 248.200 C 45.468 245.958,46.836 244.803,49.286 243.956 C 52.249 242.933,96.924 242.805,100.308 243.810 M132.789 272.935 C 128.792 273.812,125.783 276.105,123.972 279.655 C 122.535 282.472,122.345 286.407,122.478 310.600 C 122.675 346.363,120.629 344.551,160.539 344.321 C 196.040 344.116,194.386 345.871,194.386 308.400 C 194.386 279.022,193.757 276.511,185.600 273.321 C 183.291 272.419,136.696 272.078,132.789 272.935 M185.683 274.724 C 188.662 275.926,191.191 278.684,192.237 281.873 C 192.954 284.059,193.000 285.668,193.000 308.400 C 193.000 336.527,193.092 335.738,189.371 339.474 C 185.770 343.088,186.545 343.000,158.400 343.000 C 130.216 343.000,131.043 343.095,127.381 339.433 C 123.755 335.807,123.853 336.577,123.692 310.400 C 123.518 282.125,123.816 279.652,127.765 276.661 C 131.747 273.644,131.838 273.635,159.400 273.724 L 183.400 273.802 185.683 274.724 " stroke="none" fill="#eeccd0" fill-rule="evenodd"></path><path id="path8" d="M300.978 157.585 C 296.507 158.267,293.254 160.755,291.757 164.639 C 291.023 166.540,291.000 169.162,291.000 250.400 L 291.000 334.200 292.120 336.480 C 295.012 342.370,295.778 342.524,322.988 342.705 C 356.391 342.928,357.949 342.403,359.220 330.501 C 360.063 322.608,359.533 167.813,358.654 165.200 C 357.637 162.178,354.605 159.151,351.600 158.161 C 349.223 157.377,305.592 156.881,300.978 157.585 M350.322 164.059 C 351.695 164.724,352.290 165.336,352.949 166.759 L 353.800 168.600 353.800 250.000 L 353.800 331.400 352.916 333.316 C 351.167 337.102,351.940 337.000,325.000 337.000 C 298.820 337.000,299.012 337.021,297.328 333.935 C 296.468 332.358,295.959 170.724,296.805 167.583 C 297.250 165.928,299.051 163.958,300.499 163.540 C 303.321 162.725,348.540 163.197,350.322 164.059 " stroke="none" fill="#a4d4fc" fill-rule="evenodd"></path></g></svg>