<svg height="512" viewBox="0 0 192 192" width="512" xmlns="http://www.w3.org/2000/svg"><g id="_11-graphs" data-name="11-graphs"><path d="m16 176v-136h-16v144a8 8 0 0 0 8 8h184v-16z"/><path d="m26.343 122.343 11.314 11.314 6.533-6.533 12.5 28.125a8.08 8.08 0 0 0 11.749 3.407l18.541-12.362 19.363 19.363a8.079 8.079 0 0 0 13.176-2.923l11.381-31.307 6.587 9.223a8.077 8.077 0 0 0 13.793-1.339l17.08-37.576 10.64 8.512 10-12.494-13.8-11.044 16.09-35.4-14.566-6.622-14.424 31.713-13.3-10.647a8.081 8.081 0 0 0 -12.517 3.513l-10.229 28.126-15.744-22.042a8.077 8.077 0 0 0 -13.665 1.072l-11.945 23.895-16.462-10.973a8 8 0 0 0 -10.095 1l-8.994 8.995-10.038-22.588-14.622 6.5 12.538 28.21zm121.365-37.132 7.766 6.213-13.021 28.646-4.917-6.884zm-82.688 21.083 18.543 12.362a8 8 0 0 0 11.592-3.078l10.058-20.116 14.408 20.171-10.847 29.828-15.117-15.118a8 8 0 0 0 -10.094-1l-16.106 10.738-11.146-25.081z"/></g></svg>